# xmcd
#
# Track frame offsets:
# 150
# 19835
# 42195
# 62947
# 84395
# 105375
# 120150
# 133605
# 153950
# 173962
# 192970
#
# Disc length: 2795 seconds
#
#
# Revision: 1
# Processed by: cddbd v1.5.2PL0 Copyright (c) Steve Scherf et al.
# Submitted via: FreeRIP 2.943 
#
DISCID=840ae90b
DTITLE=Putumayo - 118 - Laura Love - The Laura Love Collection
DYEAR=1995
DGENRE=Blues
TTITLE0=All Our Lives
TTITLE1=If You Leave Me Now
TTITLE2=Bang Bang
TTITLE3=Anyway
TTITLE4=Less Is More
TTITLE5=In A Heartbeat
TTITLE6=Take A Ride
TTITLE7=I'm A Givin' Way
TTITLE8=This Place I Love
TTITLE9=Ha Me A Riddle I Day
TTITLE10=Wayfaring Stranger
EXTD=YEAR: 1995
EXTT0=
EXTT1=
EXTT2=
EXTT3=
EXTT4=
EXTT5=
EXTT6=
EXTT7=
EXTT8=
EXTT9=
EXTT10=
PLAYORDER=
